<?xml version="1.0" encoding="UTF-8" standalone="no"?>
<!-- Created with Inkscape (http://www.inkscape.org/) -->

<svg
   width="12.7mm"
   height="12.7mm"
   viewBox="0 0 12.7 12.7"
   version="1.1"
   id="svg1229"
   inkscape:version="1.2.2 (732a01da63, 2022-12-09)"
   sodipodi:docname="settings_dark_new.svg"
   xmlns:inkscape="http://www.inkscape.org/namespaces/inkscape"
   xmlns:sodipodi="http://sodipodi.sourceforge.net/DTD/sodipodi-0.dtd"
   xmlns="http://www.w3.org/2000/svg"
   xmlns:svg="http://www.w3.org/2000/svg">
  <sodipodi:namedview
     id="namedview1231"
     pagecolor="#ffffff"
     bordercolor="#000000"
     borderopacity="0.25"
     inkscape:showpageshadow="2"
     inkscape:pageopacity="0.0"
     inkscape:pagecheckerboard="0"
     inkscape:deskcolor="#d1d1d1"
     inkscape:document-units="mm"
     showgrid="false"
     inkscape:zoom="10.26759"
     inkscape:cx="26.588518"
     inkscape:cy="24.251066"
     inkscape:window-width="1920"
     inkscape:window-height="1009"
     inkscape:window-x="-8"
     inkscape:window-y="-8"
     inkscape:window-maximized="1"
     inkscape:current-layer="layer1" />
  <defs
     id="defs1226" />
  <g
     inkscape:label="Layer 1"
     inkscape:groupmode="layer"
     id="layer1"
     transform="translate(-97.892676,-142.25852)">
    <path
       id="path1233"
       style="fill:#ffffff;stroke-width:0.264583"
       d="M 104.2711 144.40723 A 4.1405277 4.1964808 0 0 0 100.13078 148.60335 A 4.1405277 4.1964808 0 0 0 104.2711 152.8 A 4.1405277 4.1964808 0 0 0 108.41193 148.60335 A 4.1405277 4.1964808 0 0 0 104.2711 144.40723 z M 104.2711 146.60037 A 1.9919294 2.0366917 0 0 1 106.26322 148.63694 A 1.9919294 2.0366917 0 0 1 104.2711 150.67403 A 1.9919294 2.0366917 0 0 1 102.27949 148.63694 A 1.9919294 2.0366917 0 0 1 104.2711 146.60037 z " />
    <rect
       style="fill:#ffffff;stroke-width:0.264583"
       id="rect1240"
       width="2.0814545"
       height="2.1709793"
       x="103.24178"
       y="143.17615" />
    <rect
       style="fill:#ffffff;stroke-width:0.264583"
       id="rect1240-4"
       width="2.0814545"
       height="2.1709793"
       x="103.32013"
       y="151.75935" />
    <rect
       style="fill:#ffffff;stroke-width:0.264583"
       id="rect1240-6"
       width="2.0814545"
       height="2.1709793"
       x="107.48303"
       y="147.55168" />
    <rect
       style="fill:#ffffff;stroke-width:0.264583"
       id="rect1240-0"
       width="2.0814545"
       height="2.1709793"
       x="98.866264"
       y="147.66359" />
    <rect
       style="fill:#ffffff;stroke-width:0.264583"
       id="rect1240-5"
       width="2.0814545"
       height="2.1709793"
       x="173.36133"
       y="30.349203"
       transform="rotate(45)" />
    <rect
       style="fill:#ffffff;stroke-width:0.264583"
       id="rect1240-5-8"
       width="2.0814545"
       height="2.1709793"
       x="177.82423"
       y="25.791338"
       transform="rotate(45)" />
    <rect
       style="fill:#ffffff;stroke-width:0.264583"
       id="rect1240-5-9"
       width="2.0814545"
       height="2.1709793"
       x="182.25549"
       y="30.095989"
       transform="rotate(45)" />
    <rect
       style="fill:#ffffff;stroke-width:0.264583"
       id="rect1240-5-1"
       width="2.0814545"
       height="2.1709793"
       x="177.90337"
       y="34.796288"
       transform="rotate(45)" />
  </g>
</svg>
